<svg width="20" height="20" viewBox="0 0 20 20" fill="none" xmlns="http://www.w3.org/2000/svg">
<path fill-rule="evenodd" clip-rule="evenodd" d="M7.353 0.293346C7.49145 0.432011 7.58611 0.608295 7.62522 0.800301C7.66433 0.992307 7.64618 1.19157 7.573 1.37335C6.98754 2.82839 6.8427 4.42344 7.15649 5.96014C7.47028 7.49685 8.22885 8.90742 9.33789 10.0165C10.4469 11.1255 11.8575 11.8841 13.3942 12.1979C14.9309 12.5116 16.526 12.3668 17.981 11.7813C18.1628 11.7083 18.362 11.6903 18.5539 11.7295C18.7459 11.7687 18.9221 11.8634 19.0606 12.0019C19.1992 12.1403 19.2941 12.3165 19.3334 12.5084C19.3728 12.7003 19.3549 12.8995 19.282 13.0813C18.5375 14.9339 17.2557 16.5212 15.6016 17.6392C13.9474 18.7571 11.9965 19.3544 10 19.3543C4.477 19.3543 0 14.8773 0 9.35435C0 5.14735 2.598 1.54935 6.273 0.0723463C6.45477 -0.000829116 6.65404 -0.0189885 6.84605 0.0201239C7.03805 0.0592362 7.21434 0.153897 7.353 0.292346V0.293346Z" fill="#CFCFCF"/>
</svg>
